# xmcd CD database file
#
# Track frame offsets:
#	150
#	20107
#	38360
#	53620
#	89520
#	97400
#	139545
#	159470
#
# Disc length: 2529 seconds
#
# Revision: 0
# Processed by: cddbd v1.5.1PL0 Copyright (c) Steve Scherf et al.
# Submitted via: CDex 1.50Beta5
#
DISCID=6109df08
DTITLE=Michael Gregory Jackson - Clarity
DYEAR=1976
DGENRE=Jazz
TTITLE0=Clarity
TTITLE1=A View Of This Life
TTITLE2=Oliver Lake
TTITLE3=Prelueoionti
TTITLE4=Ballad
TTITLE5=Clarity (4)
TTITLE6=An Bd 1-7-3°
TTITLE7=Iomi
EXTD=YEAR: 1976
EXTT0=
EXTT1=
EXTT2=
EXTT3=
EXTT4=
EXTT5=
EXTT6=
EXTT7=
PLAYORDER=
